<mxfile host="app.diagrams.net" modified="2024-02-14T09:12:25.525Z" agent="Mozilla/5.0 (Windows NT 10.0; Win64; x64; rv:122.0) Gecko/20100101 Firefox/122.0" etag="1qyM_yYROOcbLbWB7Zq3" version="22.1.21" type="device">
  <diagram name="Seite-1" id="QNmsRObQdG-p_9PoiA3w">
    <mxGraphModel dx="574" dy="1482" grid="1" gridSize="10" guides="1" tooltips="1" connect="1" arrows="1" fold="1" page="1" pageScale="1" pageWidth="827" pageHeight="1169" math="0" shadow="0">
      <root>
        <mxCell id="0" />
        <mxCell id="1" parent="0" />
        <mxCell id="WHDYEQkBf0l6KUhxKHpv-1" value="&lt;b&gt;Tier&lt;/b&gt;" style="html=1;" vertex="1" parent="1">
          <mxGeometry x="280" y="-1031" width="80" height="31" as="geometry" />
        </mxCell>
        <mxCell id="WHDYEQkBf0l6KUhxKHpv-3" value="Patenschaft" style="swimlane;fontStyle=1;childLayout=stackLayout;horizontal=1;startSize=26;fillColor=default;horizontalStack=0;resizeParent=1;resizeParentMax=0;resizeLast=0;collapsible=1;marginBottom=0;" vertex="1" parent="1">
          <mxGeometry x="170" y="-1110" width="100" height="52" as="geometry" />
        </mxCell>
        <mxCell id="WHDYEQkBf0l6KUhxKHpv-4" value="zeitraum" style="text;strokeColor=none;fillColor=none;align=left;verticalAlign=top;spacingLeft=4;spacingRight=4;overflow=hidden;rotatable=0;points=[[0,0.5],[1,0.5]];portConstraint=eastwest;fontStyle=0" vertex="1" parent="WHDYEQkBf0l6KUhxKHpv-3">
          <mxGeometry y="26" width="100" height="26" as="geometry" />
        </mxCell>
        <mxCell id="WHDYEQkBf0l6KUhxKHpv-5" value="" style="endArrow=none;html=1;rounded=0;dashed=1;entryX=0.501;entryY=0.991;entryDx=0;entryDy=0;entryPerimeter=0;" edge="1" parent="1" target="WHDYEQkBf0l6KUhxKHpv-4">
          <mxGeometry width="50" height="50" relative="1" as="geometry">
            <mxPoint x="220" y="-1015" as="sourcePoint" />
            <mxPoint x="220" y="-1053" as="targetPoint" />
          </mxGeometry>
        </mxCell>
        <mxCell id="WHDYEQkBf0l6KUhxKHpv-6" value="&lt;b&gt;Kind&lt;/b&gt;" style="html=1;" vertex="1" parent="1">
          <mxGeometry x="80" y="-1031" width="80" height="31" as="geometry" />
        </mxCell>
        <mxCell id="WHDYEQkBf0l6KUhxKHpv-7" value="" style="endArrow=none;html=1;rounded=0;" edge="1" parent="1" source="WHDYEQkBf0l6KUhxKHpv-6" target="WHDYEQkBf0l6KUhxKHpv-1">
          <mxGeometry relative="1" as="geometry">
            <mxPoint x="160" y="-960" as="sourcePoint" />
            <mxPoint x="320" y="-960" as="targetPoint" />
          </mxGeometry>
        </mxCell>
        <mxCell id="WHDYEQkBf0l6KUhxKHpv-8" value="0..1" style="edgeLabel;resizable=0;html=1;align=left;verticalAlign=bottom;spacingLeft=1;spacingBottom=-1;labelBackgroundColor=none;" connectable="0" vertex="1" parent="WHDYEQkBf0l6KUhxKHpv-7">
          <mxGeometry x="-1" relative="1" as="geometry" />
        </mxCell>
        <mxCell id="WHDYEQkBf0l6KUhxKHpv-9" value="*" style="edgeLabel;resizable=0;html=1;align=right;verticalAlign=bottom;fontSize=14;spacingBottom=-6;spacingLeft=0;spacingRight=1;labelBackgroundColor=none;" connectable="0" vertex="1" parent="WHDYEQkBf0l6KUhxKHpv-7">
          <mxGeometry x="1" relative="1" as="geometry" />
        </mxCell>
      </root>
    </mxGraphModel>
  </diagram>
</mxfile>
